<svg data-name="Group 8695" xmlns="http://www.w3.org/2000/svg" width="460" height="230" viewBox="0 0 460 230"><defs><clipPath id="a"><path data-name="Rectangle 24572" fill="none" d="M0 0h460v230H0z"/></clipPath><clipPath id="b"><path data-name="Rectangle 24576" fill="none" d="M0 0h155.334v137.21H0z"/></clipPath></defs><path data-name="Line 1356" fill="none" stroke="#1d70cc" stroke-linecap="round" stroke-linejoin="round" stroke-width="3" d="M96.203 54.505h33.831"/><path data-name="Line 1357" fill="none" stroke="#0e367d" stroke-linecap="round" stroke-linejoin="round" stroke-width="3" d="M67.133 64.374h47.476"/><path data-name="Line 1358" fill="none" stroke="#1d70cc" stroke-linecap="round" stroke-linejoin="round" stroke-width="3" d="M335.37 158.106v-30.74"/><path data-name="Line 1359" fill="none" stroke="#0e367d" stroke-linecap="round" stroke-linejoin="round" stroke-width="3" d="M344.239 171.249v-29.55"/><g data-name="Group 8699"><g data-name="Group 8698" clip-path="url(#a)"><path data-name="Path 33503" d="M164.914 59.439h135.164a4 4 0 0 1 4 4v89a4 4 0 0 1-4 4H164.914a4 4 0 0 1-4-4v-89a4 4 0 0 1 4-4" fill="#fff"/><path data-name="Path 33508" d="M103.547 165.794H99a.42.42 0 0 1-.42-.418v-4.518a.42.42 0 0 1 .42-.419h4.543a.42.42 0 0 1 .42.419v4.52a.42.42 0 0 1-.42.418" fill="#3178c4"/><path data-name="Path 33509" d="M113.658 175.592h-6.9a.638.638 0 0 1-.638-.635V168.1a.637.637 0 0 1 .638-.635h6.9a.637.637 0 0 1 .638.635v6.865a.638.638 0 0 1-.638.635" fill="#0e367d"/><path data-name="Path 33510" d="M156.85 205.181h-9.9a4.48 4.48 0 0 1 0-8.96h9.9a4.48 4.48 0 0 1 0 8.96" fill="#0e367d"/><path data-name="Path 33511" d="M373.645 189.981h-9.9a4.48 4.48 0 0 1 0-8.96h9.9a4.48 4.48 0 0 1 0 8.96" fill="#3178c4"/><path data-name="Path 33512" d="M345.629 103.958h-9.9a4.48 4.48 0 1 1 0-8.96h9.9a4.48 4.48 0 1 1 0 8.96" fill="#3178c4"/><path data-name="Path 33513" d="M326.959 40.965h-3.024a.279.279 0 0 1-.28-.278v-3.006a.279.279 0 0 1 .279-.279h3.025a.279.279 0 0 1 .28.278v3.008a.28.28 0 0 1-.28.278" fill="#3178c4"/><path data-name="Path 33514" d="M319.572 37.4h-8.614a.8.8 0 0 1-.8-.792v-8.574a.8.8 0 0 1 .8-.792h8.614a.8.8 0 0 1 .8.792V36.6a.8.8 0 0 1-.8.792" fill="#0e367d"/><path data-name="Path 33515" d="M111.637 135.046h-4.673a1.1 1.1 0 0 1-1.1-1.1v-4.508a1.1 1.1 0 0 1 1.1-1.094h4.673a1.1 1.1 0 0 1 1.1 1.094v4.51a1.1 1.1 0 0 1-1.1 1.094" fill="#12367d"/><path data-name="Line 1360" fill="none" stroke="#1d70cc" stroke-linecap="round" stroke-linejoin="round" stroke-width="3" d="M119.534 100.598v34.838"/><path data-name="Path 33516" d="M176.167 18.175h8.267a.436.436 0 0 1 .434.434v8.265a.435.435 0 0 1-.434.434h-8.267a.434.434 0 0 1-.434-.434V18.61a.434.434 0 0 1 .434-.434" fill="#3178c4"/><path data-name="Path 33517" d="M166.549 33.273h-3.408a.893.893 0 0 1-.894-.891v-3.3a.894.894 0 0 1 .893-.894h3.409a.894.894 0 0 1 .894.892v3.305a.894.894 0 0 1-.892.894" fill="#12367d"/><path data-name="Line 1361" fill="none" stroke="#3178c4" stroke-linecap="round" stroke-linejoin="round" stroke-width="3" d="M231.859 33.17h21.645"/><path data-name="Line 1362" fill="none" stroke="#12367d" stroke-linecap="round" stroke-linejoin="round" stroke-width="3" d="M236.478 24.315h35.795"/><path data-name="Path 33518" d="M376.293 67.336v4.673a1.1 1.1 0 0 1-1.1 1.1h-4.508a1.1 1.1 0 0 1-1.094-1.1v-4.673a1.1 1.1 0 0 1 1.094-1.1h4.51a1.1 1.1 0 0 1 1.094 1.1" fill="#12367d"/><path data-name="Line 1363" fill="none" stroke="#1d70cc" stroke-linecap="round" stroke-linejoin="round" stroke-width="3" d="M341.845 59.439h34.838"/><path data-name="Line 1364" fill="none" stroke="#1d70cc" stroke-linecap="round" stroke-linejoin="round" stroke-width="3" d="M298.711 214.891h-30.74"/><path data-name="Line 1365" fill="none" stroke="#0e367d" stroke-linecap="round" stroke-linejoin="round" stroke-width="3" d="M327.509 206.022h-45.205"/></g></g><g data-name="Group 8700" opacity=".997"><path data-name="Rectangle 24575" fill="#3178c4" d="M226.5 161.257h11.988v28.495H226.5z"/><g data-name="Group 8701"><g data-name="Group 8700" clip-path="url(#b)" transform="translate(154.827 52.542)"><path data-name="Path 33519" d="M147.433 115.447H7.9a8.12 8.12 0 0 1-7.9-8.324v-98.8A8.119 8.119 0 0 1 7.9 0h139.532a8.12 8.12 0 0 1 7.9 8.323v98.8a8.12 8.12 0 0 1-7.9 8.323" fill="#0e367d"/><path data-name="Path 33520" d="M10.087 6.895h135.164a4 4 0 0 1 4 4v89a4 4 0 0 1-4 4H10.087a4 4 0 0 1-4-4v-89a4 4 0 0 1 4-4" fill="#fff"/><path data-name="Path 33521" d="M112.007 137.206H42.555a1.381 1.381 0 0 1-1.385-1.377v-5.747a1.382 1.382 0 0 1 1.385-1.376h69.452a1.381 1.381 0 0 1 1.385 1.377v5.746a1.381 1.381 0 0 1-1.384 1.378" fill="#3178c4"/><path data-name="Path 33522" d="M144.913 107.706a2 2 0 1 1-2 2 2 2 0 0 1 2-2" fill="#fff"/><path data-name="Path 33523" d="M134.913 107.706a2 2 0 1 1-2 2 2 2 0 0 1 2-2" fill="#fff"/><path data-name="Path 33524" d="M124.913 107.706a2 2 0 1 1-2 2 2 2 0 0 1 2-2" fill="#fff"/><path data-name="Path 33564" d="m54.581 31.456 45.5 47.1" fill="none" stroke="#0e367d" stroke-width="6"/><path data-name="Path 33525" d="M109.981 55.107a32.754 32.754 0 1 1-32.753-32.754 32.754 32.754 0 0 1 32.753 32.754Z" fill="none" stroke="#3178c4" stroke-miterlimit="10" stroke-width="6"/></g></g></g></svg>